<svg width="99" height="18" viewBox="0 0 99 18" fill="none" xmlns="http://www.w3.org/2000/svg">
<path d="M7.08 17.472C5.704 17.472 4.376 17.304 3.096 16.968C1.832 16.616 0.8 16.168 0 15.624L1.56 12.12C2.312 12.6 3.176 13 4.152 13.32C5.144 13.624 6.128 13.776 7.104 13.776C7.76 13.776 8.288 13.72 8.688 13.608C9.088 13.48 9.376 13.32 9.552 13.128C9.744 12.92 9.84 12.68 9.84 12.408C9.84 12.024 9.664 11.72 9.312 11.496C8.96 11.272 8.504 11.088 7.944 10.944C7.384 10.8 6.76 10.656 6.072 10.512C5.4 10.368 4.72 10.184 4.032 9.96C3.36 9.736 2.744 9.448 2.184 9.096C1.624 8.728 1.168 8.256 0.816 7.68C0.464 7.088 0.288 6.344 0.288 5.448C0.288 4.44 0.56 3.528 1.104 2.712C1.664 1.896 2.496 1.24 3.6 0.744C4.704 0.248 6.08 0 7.728 0C8.832 0 9.912 0.128 10.968 0.384001C12.04 0.624001 12.992 0.984 13.824 1.464L12.36 4.992C11.56 4.56 10.768 4.24 9.984 4.032C9.2 3.808 8.44 3.696 7.704 3.696C7.048 3.696 6.52 3.768 6.12 3.912C5.72 4.04 5.432 4.216 5.256 4.44C5.08 4.664 4.992 4.92 4.992 5.208C4.992 5.576 5.16 5.872 5.496 6.096C5.848 6.304 6.304 6.48 6.864 6.624C7.44 6.752 8.064 6.888 8.736 7.032C9.424 7.176 10.104 7.36 10.776 7.584C11.464 7.792 12.088 8.08 12.648 8.448C13.208 8.8 13.656 9.272 13.992 9.864C14.344 10.44 14.52 11.168 14.52 12.048C14.52 13.024 14.24 13.928 13.68 14.76C13.136 15.576 12.312 16.232 11.208 16.728C10.12 17.224 8.744 17.472 7.08 17.472Z" fill="#232323"/>
<path d="M16.4751 17.136V0.336H21.2271V17.136H16.4751Z" fill="#232323"/>
<path d="M24.3679 17.136V0.336H28.2799L37.5439 11.52H35.6959V0.336H40.3519V17.136H36.4399L27.1759 5.952H29.0239V17.136H24.3679Z" fill="#232323"/>
<path d="M41.4478 17.136L48.8638 0.336H53.5438L60.9838 17.136H56.0398L50.2318 2.664H52.1038L46.2958 17.136H41.4478ZM45.5038 13.872L46.7278 10.368H54.9358L56.1598 13.872H45.5038Z" fill="#232323"/>
<path d="M65.3055 17.136L59.8575 0.336H64.7535L69.3375 14.88H66.8655L71.6895 0.336H76.0575L80.6175 14.88H78.2415L82.9695 0.336H87.5055L82.0575 17.136H76.9695L73.0815 4.776H74.4495L70.3935 17.136H65.3055Z" fill="#232323"/>
<path d="M98.496 14.136C98.496 15.7929 97.1529 17.136 95.496 17.136C93.8391 17.136 92.496 15.7929 92.496 14.136C92.496 12.4791 93.8391 11.136 95.496 11.136C97.1529 11.136 98.496 12.4791 98.496 14.136Z" fill="#079011"/>
</svg>
